{
  "accessors": [
    {
      "bufferView": 2,
      "componentType": 5126,
      "count": 398,
      "max": [
        1.6006699800491333,
        3.965749979019165,
        0.30000001192092896
      ],
      "min": [
        -1.2995100021362305,
        -4.000730037689209,
        -0.05000000074505806
      ],
      "type": "VEC3"
    },
    {
      "bufferView": 2,
      "byteOffset": 4776,
      "componentType": 5126,
      "count": 398,
      "max": [
        0.9998813271522522,
        0.99994391202926636,
        1
      ],
      "min": [
        -0.99993133544921875,
        -0.99998599290847778,
        -1
      ],
      "type": "VEC3"
    },
    {
      "bufferView": 3,
      "componentType": 5126,
      "count": 398,
      "max": [
        0.51640748977661133,
        0.99999850988388062,
        0.99997431039810181,
        1
      ],
      "min": [
        -0.47316363453865051,
        -8.7505351984873414e-05,
        -0.99986428022384644,
        1
      ],
      "type": "VEC4"
    },
    {
      "bufferView": 1,
      "componentType": 5126,
      "count": 398,
      "max": [
        0.95337998867034912,
        0.73865002393722534
      ],
      "min": [
        0.0001500000071246177,
        0.26932001113891602
      ],
      "type": "VEC2"
    },
    {
      "bufferView": 0,
      "componentType": 5125,
      "count": 2064,
      "max": [
        397
      ],
      "min": [
        0
      ],
      "type": "SCALAR"
    },
    {
      "bufferView": 2,
      "byteOffset": 9552,
      "componentType": 5126,
      "count": 104,
      "max": [
        1.6006699800491333,
        3.965749979019165,
        0.28929001092910767
      ],
      "min": [
        -1.2995100021362305,
        -4.000730037689209,
        0.013340000063180923
      ],
      "type": "VEC3"
    },
    {
      "bufferView": 2,
      "byteOffset": 10800,
      "componentType": 5126,
      "count": 104,
      "max": [
        0.9998813271522522,
        0.99994391202926636,
        0.71262121200561523
      ],
      "min": [
        -0.99993133544921875,
        -0.99998599290847778,
        -0.70012253522872925
      ],
      "type": "VEC3"
    },
    {
      "bufferView": 3,
      "byteOffset": 6368,
      "componentType": 5126,
      "count": 104,
      "max": [
        0.38688325881958008,
        0.99719351530075073,
        0.99854063987731934,
        1
      ],
      "min": [
        -0.59886205196380615,
        8.8590531959198415e-05,
        -1,
        1
      ],
      "type": "VEC4"
    },
    {
      "bufferView": 1,
      "byteOffset": 3184,
      "componentType": 5126,
      "count": 104,
      "max": [
        0.9717400074005127,
        0.41512000560760498
      ],
      "min": [
        -0.018850000575184822,
        0.12072999775409698
      ],
      "type": "VEC2"
    },
    {
      "bufferView": 0,
      "byteOffset": 8256,
      "componentType": 5125,
      "count": 312,
      "max": [
        103
      ],
      "min": [
        0
      ],
      "type": "SCALAR"
    },
    {
      "bufferView": 2,
      "byteOffset": 12048,
      "componentType": 5126,
      "count": 196,
      "max": [
        0.051210001111030579,
        0.56801998615264893,
        0.37628999352455139
      ],
      "min": [
        -2.6260800361633301,
        -0.69252002239227295,
        -0.55466002225875854
      ],
      "type": "VEC3"
    },
    {
      "bufferView": 2,
      "byteOffset": 14400,
      "componentType": 5126,
      "count": 196,
      "max": [
        0.99936681985855103,
        0.77710318565368652,
        0.71926939487457275
      ],
      "min": [
        -0.86769676208496094,
        -0.80851972103118896,
        -0.9994126558303833
      ],
      "type": "VEC3"
    },
    {
      "bufferView": 3,
      "byteOffset": 8032,
      "componentType": 5126,
      "count": 196,
      "max": [
        0.98618978261947632,
        0.99998700618743896,
        0.9765743613243103,
        1
      ],
      "min": [
        -0.92851823568344116,
        -0.79409319162368774,
        -0.98475146293640137,
        1
      ],
      "type": "VEC4"
    },
    {
      "bufferView": 1,
      "byteOffset": 4016,
      "componentType": 5126,
      "count": 196,
      "max": [
        0.98593002557754517,
        0.9998900294303894
      ],
      "min": [
        0.00011000000085914508,
        0.00011000000085914508
      ],
      "type": "VEC2"
    },
    {
      "bufferView": 0,
      "byteOffset": 9504,
      "componentType": 5125,
      "count": 756,
      "max": [
        195
      ],
      "min": [
        0
      ],
      "type": "SCALAR"
    },
    {
      "bufferView": 2,
      "byteOffset": 16752,
      "componentType": 5126,
      "count": 2248,
      "max": [
        0.475739985704422,
        1.2258100509643555,
        1.8458499908447266
      ],
      "min": [
        -1.9002699851989746,
        -1.5368599891662598,
        -0.44214999675750732
      ],
      "type": "VEC3"
    },
    {
      "bufferView": 2,
      "byteOffset": 43728,
      "componentType": 5126,
      "count": 2248,
      "max": [
        0.99847429990768433,
        0.9979705810546875,
        0.99767285585403442
      ],
      "min": [
        -0.99996346235275269,
        -0.99932897090911865,
        -0.99767357110977173
      ],
      "type": "VEC3"
    },
    {
      "bufferView": 3,
      "byteOffset": 11168,
      "componentType": 5126,
      "count": 2248,
      "max": [
        0.99653178453445435,
        0.99985289573669434,
        0.99675697088241577,
        1
      ],
      "min": [
        -0.9956926703453064,
        -0.99178361892700195,
        -0.99438601732254028,
        -1
      ],
      "type": "VEC4"
    },
    {
      "bufferView": 2,
      "byteOffset": 70704,
      "componentType": 5126,
      "count": 2248,
      "max": [
        1,
        1,
        1
      ],
      "min": [
        0,
        0,
        0
      ],
      "type": "VEC3"
    },
    {
      "bufferView": 1,
      "byteOffset": 5584,
      "componentType": 5126,
      "count": 2248,
      "max": [
        0.99985998868942261,
        0.93906998634338379
      ],
      "min": [
        0.00014000000373926014,
        0.00014000000373926014
      ],
      "type": "VEC2"
    },
    {
      "bufferView": 0,
      "byteOffset": 12528,
      "componentType": 5125,
      "count": 8592,
      "max": [
        2247
      ],
      "min": [
        0
      ],
      "type": "SCALAR"
    },
    {
      "bufferView": 2,
      "byteOffset": 97680,
      "componentType": 5126,
      "count": 430,
      "max": [
        -0.0027099999133497477,
        0.56990998983383179,
        0.26069998741149902
      ],
      "min": [
        -0.2342199981212616,
        -0.03872000053524971,
        -0.30355998873710632
      ],
      "type": "VEC3"
    },
    {
      "bufferView": 2,
      "byteOffset": 102840,
      "componentType": 5126,
      "count": 430,
      "max": [
        0.98796415328979492,
        0.97813916206359863,
        0.94579190015792847
      ],
      "min": [
        -0.98795801401138306,
        -0.93644380569458008,
        -0.98792290687561035
      ],
      "type": "VEC3"
    },
    {
      "bufferView": 3,
      "byteOffset": 47136,
      "componentType": 5126,
      "count": 430,
      "max": [
        0.85890549421310425,
        0.99921184778213501,
        0.91558146476745605,
        1
      ],
      "min": [
        -0.98544907569885254,
        -0.90967875719070435,
        -0.86016076803207397,
        -1
      ],
      "type": "VEC4"
    },
    {
      "bufferView": 1,
      "byteOffset": 23568,
      "componentType": 5126,
      "count": 430,
      "max": [
        0.99985998868942261,
        0.83348000049591064
      ],
      "min": [
        0.00014000000373926014,
        0.00014000000373926014
      ],
      "type": "VEC2"
    },
    {
      "bufferView": 0,
      "byteOffset": 46896,
      "componentType": 5125,
      "count": 2184,
      "max": [
        429
      ],
      "min": [
        0
      ],
      "type": "SCALAR"
    },
    {
      "bufferView": 2,
      "byteOffset": 108000,
      "componentType": 5126,
      "count": 2289,
      "max": [
        0.25815999507904053,
        0.37966999411582947,
        0.41767999529838562
      ],
      "min": [
        -0.20434999465942383,
        -0.34485000371932983,
        -0.40659999847412109
      ],
      "type": "VEC3"
    },
    {
      "bufferView": 2,
      "byteOffset": 135468,
      "componentType": 5126,
      "count": 2289,
      "max": [
        0.99690580368041992,
        0.99921119213104248,
        0.98085713386535645
      ],
      "min": [
        -0.99841344356536865,
        -0.99928385019302368,
        -0.98252743482589722
      ],
      "type": "VEC3"
    },
    {
      "bufferView": 3,
      "byteOffset": 54016,
      "componentType": 5126,
      "count": 2289,
      "max": [
        0.99946653842926025,
        0.99489516019821167,
        0.99556612968444824,
        1
      ],
      "min": [
        -0.99960619211196899,
        -0.99234557151794434,
        -0.96830058097839355,
        -1
      ],
      "type": "VEC4"
    },
    {
      "bufferView": 1,
      "byteOffset": 27008,
      "componentType": 5126,
      "count": 2289,
      "max": [
        0.86739999055862427,
        0.9997900128364563
      ],
      "min": [
        0.00020999999833293259,
        0.00020999999833293259
      ],
      "type": "VEC2"
    },
    {
      "bufferView": 0,
      "byteOffset": 55632,
      "componentType": 5125,
      "count": 6840,
      "max": [
        2288
      ],
      "min": [
        0
      ],
      "type": "SCALAR"
    }
  ],
  "asset": {
    "extras": {
      "author": "tornike.ch (https://sketchfab.com/tornike.ch)",
      "license": "CC-BY-4.0 (http://creativecommons.org/licenses/by/4.0/)",
      "source": "https://sketchfab.com/3d-models/sandal-cba16fcda2614105b6dc4e08d2d4d080",
      "title": "Sandal"
    },
    "generator": "Sketchfab-5.99.0",
    "version": "2.0"
  },
  "bufferViews": [
    {
      "buffer": 0,
      "byteLength": 82992,
      "byteOffset": 0,
      "name": "floatBufferViews",
      "target": 34963
    },
    {
      "buffer": 0,
      "byteLength": 45320,
      "byteOffset": 82992,
      "byteStride": 8,
      "name": "floatBufferViews",
      "target": 34962
    },
    {
      "buffer": 0,
      "byteLength": 162936,
      "byteOffset": 128312,
      "byteStride": 12,
      "name": "floatBufferViews",
      "target": 34962
    },
    {
      "buffer": 0,
      "byteLength": 90640,
      "byteOffset": 291248,
      "byteStride": 16,
      "name": "floatBufferViews",
      "target": 34962
    }
  ],
  "buffers": [
    {
      "byteLength": 381888,
      "uri": "scene.bin"
    }
  ],
  "images": [
    {
      "uri": "textures/stell_part_baseColor.png"
    },
    {
      "uri": "textures/back_part_baseColor.jpeg"
    },
    {
      "uri": "textures/kanti_baseColor.jpeg"
    }
  ],
  "materials": [
    {
      "doubleSided": true,
      "emissiveFactor": [
        0,
        0,
        0
      ],
      "name": "stell_part",
      "pbrMetallicRoughness": {
        "baseColorFactor": [
          0.06878810975609756,
          0.06878810975609756,
          0.06878810975609756,
          1
        ],
        "baseColorTexture": {
          "index": 0,
          "texCoord": 0
        },
        "metallicFactor": 0,
        "roughnessFactor": 0.59999999999999998
      }
    },
    {
      "doubleSided": true,
      "emissiveFactor": [
        0,
        0,
        0
      ],
      "name": "back_part",
      "pbrMetallicRoughness": {
        "baseColorFactor": [
          1,
          1,
          1,
          1
        ],
        "baseColorTexture": {
          "index": 1,
          "texCoord": 0
        },
        "metallicFactor": 0,
        "roughnessFactor": 1
      }
    },
    {
      "doubleSided": true,
      "emissiveFactor": [
        0,
        0,
        0
      ],
      "name": "front_part",
      "pbrMetallicRoughness": {
        "baseColorFactor": [
          1,
          1,
          1,
          1
        ],
        "baseColorTexture": {
          "index": 1,
          "texCoord": 0
        },
        "metallicFactor": 0,
        "roughnessFactor": 0.59999999999999998
      }
    },
    {
      "doubleSided": true,
      "name": "above",
      "pbrMetallicRoughness": {
        "baseColorFactor": [
          0.16261070966720581,
          0.091496340930461884,
          0.073496371507644653,
          1
        ],
        "metallicFactor": 0,
        "roughnessFactor": 0.59999999999999998
      }
    },
    {
      "doubleSided": true,
      "emissiveFactor": [
        0,
        0,
        0
      ],
      "name": "kanti",
      "pbrMetallicRoughness": {
        "baseColorFactor": [
          1,
          1,
          1,
          1
        ],
        "baseColorTexture": {
          "index": 2,
          "texCoord": 0
        },
        "metallicFactor": 0,
        "roughnessFactor": 0.59999999999999998
      }
    }
  ],
  "meshes": [
    {
      "name": "Plane_0",
      "primitives": [
        {
          "attributes": {
            "NORMAL": 1,
            "POSITION": 0,
            "TANGENT": 2,
            "TEXCOORD_0": 3
          },
          "indices": 4,
          "material": 3,
          "mode": 4
        }
      ]
    },
    {
      "name": "Plane_1",
      "primitives": [
        {
          "attributes": {
            "NORMAL": 6,
            "POSITION": 5,
            "TANGENT": 7,
            "TEXCOORD_0": 8
          },
          "indices": 9,
          "material": 4,
          "mode": 4
        }
      ]
    },
    {
      "name": "Plane.001_0",
      "primitives": [
        {
          "attributes": {
            "NORMAL": 11,
            "POSITION": 10,
            "TANGENT": 12,
            "TEXCOORD_0": 13
          },
          "indices": 14,
          "material": 2,
          "mode": 4
        }
      ]
    },
    {
      "name": "Plane.002_0",
      "primitives": [
        {
          "attributes": {
            "COLOR_0": 18,
            "NORMAL": 16,
            "POSITION": 15,
            "TANGENT": 17,
            "TEXCOORD_0": 19
          },
          "indices": 20,
          "material": 1,
          "mode": 4
        }
      ]
    },
    {
      "name": "Plane.003_0",
      "primitives": [
        {
          "attributes": {
            "NORMAL": 22,
            "POSITION": 21,
            "TANGENT": 23,
            "TEXCOORD_0": 24
          },
          "indices": 25,
          "material": 1,
          "mode": 4
        }
      ]
    },
    {
      "name": "Plane.004_0",
      "primitives": [
        {
          "attributes": {
            "NORMAL": 27,
            "POSITION": 26,
            "TANGENT": 28,
            "TEXCOORD_0": 29
          },
          "indices": 30,
          "material": 0,
          "mode": 4
        }
      ]
    }
  ],
  "nodes": [
    {
      "children": [
        1
      ],
      "name": "RootNode (gltf orientation matrix)",
      "rotation": [
        -0.70710678118654746,
        -0,
        -0,
        0.70710678118654757
      ]
    },
    {
      "children": [
        2
      ],
      "name": "RootNode (model correction matrix)"
    },
    {
      "children": [
        3,
        5,
        8,
        10,
        12,
        14,
        16,
        18
      ],
      "name": "Root"
    },
    {
      "children": [
        4
      ],
      "matrix": [
        -0.29086000000000006,
        0.95517000000000007,
        -0.05519000000000001,
        0,
        -0.77110000000000001,
        -0.19988000000000003,
        0.60452000000000006,
        0,
        0.56639000000000006,
        0.21839000000000003,
        0.7946700000000001,
        0,
        4.0762500000000008,
        1.00545,
        5.9038600000000008,
        1
      ],
      "name": "Lamp"
    },
    {
      "name": "Lamp"
    },
    {
      "children": [
        6,
        7
      ],
      "matrix": [
        1,
        0,
        0,
        0,
        0,
        1,
        0,
        0,
        0,
        0,
        1,
        0,
        -1.8667100000000001,
        0,
        0,
        1
      ],
      "name": "Plane"
    },
    {
      "mesh": 0,
      "name": "Plane_0"
    },
    {
      "mesh": 1,
      "name": "Plane_1"
    },
    {
      "children": [
        9
      ],
      "matrix": [
        1,
        0,
        0,
        0,
        0,
        1,
        0,
        0,
        0,
        0,
        1,
        0,
        -0.42877000000000004,
        1.9955199999999997,
        0.78000000000000003,
        1
      ],
      "name": "Plane.001"
    },
    {
      "mesh": 2,
      "name": "Plane.001_0"
    },
    {
      "children": [
        11
      ],
      "matrix": [
        1,
        0,
        0,
        0,
        0,
        1,
        0,
        0,
        0,
        0,
        1,
        0,
        -0.66697000000000017,
        -2.19834,
        0.63009000000000015,
        1
      ],
      "name": "Plane.002"
    },
    {
      "mesh": 3,
      "name": "Plane.002_0"
    },
    {
      "children": [
        13
      ],
      "matrix": [
        0.99985000000000002,
        -0.015200000000000003,
        -0.008210000000000002,
        0,
        0.015190000000000002,
        0.99987999999999999,
        -0.0016800000000000003,
        0,
        0.0082400000000000025,
        0.0015600000000000004,
        0.99995999999999996,
        0,
        -0.36342000000000008,
        -2.0298699999999998,
        1.4547199999999998,
        1
      ],
      "name": "Plane.003"
    },
    {
      "mesh": 4,
      "name": "Plane.003_0"
    },
    {
      "children": [
        15
      ],
      "matrix": [
        1,
        0,
        0,
        0,
        0,
        1,
        0,
        0,
        0,
        0,
        1,
        0,
        -0.51588000000000001,
        -1.64574,
        1.4856799999999999,
        1
      ],
      "name": "Plane.004"
    },
    {
      "mesh": 5,
      "name": "Plane.004_0"
    },
    {
      "children": [
        17
      ],
      "matrix": [
        -0.045980000000000007,
        0.95517000000000007,
        -0.29246000000000005,
        0,
        -0.82887000000000011,
        -0.19988000000000003,
        -0.52250999999999992,
        0,
        -0.55754000000000004,
        0.21839000000000003,
        0.80091000000000001,
        0,
        -6.2759600000000004,
        1.00545,
        5.9038600000000008,
        1
      ],
      "name": "Lamp.001"
    },
    {
      "name": "Lamp.001"
    },
    {
      "children": [
        19
      ],
      "matrix": [
        -0.29086000000000006,
        -0.95517000000000007,
        0.05519000000000001,
        0,
        -0.77110000000000001,
        0.19988000000000003,
        -0.60452000000000006,
        0,
        0.56639000000000006,
        -0.21839000000000003,
        -0.7946700000000001,
        0,
        4.0762500000000008,
        1.00545,
        5.9038600000000008,
        1
      ],
      "name": "Lamp.002"
    },
    {
      "name": "Lamp.002"
    }
  ],
  "samplers": [
    {
      "magFilter": 9729,
      "minFilter": 9987,
      "wrapS": 10497,
      "wrapT": 10497
    }
  ],
  "scene": 0,
  "scenes": [
    {
      "name": "OSG_Scene",
      "nodes": [
        0
      ]
    }
  ],
  "textures": [
    {
      "sampler": 0,
      "source": 0
    },
    {
      "sampler": 0,
      "source": 1
    },
    {
      "sampler": 0,
      "source": 2
    }
  ]
}

